PathFileType	4	(X/Y/Z)	D:\TRACE\spot_10-12-23\spot_body_motion_3_3-platform.trc
DataRate	CameraRate	NumFrames	NumMarkers	Units	OrigDataRate	OrigDataStartFrame	OrigNumFrames
100.00	100.00	      61	5	mm	100.00	3501	      7000
Frame#	Time	Left_Front			Right_Front			Left_Aft			Right_Aft			Post			
		X1	Y1	Z1	X2	Y2	Z2	X3	Y3	Z3	X4	Y4	Z4	X5	Y5	Z5	

3501	35.000	-753.54663	-7.05155	-644.68304	819.45953	-2.21988	-637.70325	-670.40656	14.60258	493.09238	746.91534	21.49197	579.02704	29.48433	723.74835	-977.75140	
3502	35.010	-753.50012	-7.23463	-644.75940	819.47272	-2.44888	-637.74756	-670.44037	14.73722	493.08130	746.26477	21.47591	579.08331	29.44329	723.58911	-977.94812	
3503	35.020	-753.53009	-7.38266	-644.80975	819.45081	-2.68814	-637.86652	-670.41516	14.78997	493.03210	746.11816	21.56966	579.09796	29.12007	723.48322	-978.35266	
3504	35.030	-753.41052	-7.62370	-644.86359	819.23962	-2.90327	-638.09094	-670.40820	14.88618	493.02029	746.07483	21.60813	579.05505	29.17795	723.19714	-978.55573	
3505	35.040	-753.36078	-7.69964	-644.89526	819.30170	-3.07440	-638.07446	-670.38983	14.96148	493.00800	745.98938	21.73532	579.03607	29.36849	722.98499	-978.67188	
3506	35.050	-753.24261	-7.86036	-644.94122	819.33411	-3.06493	-638.05011	-670.33917	15.11222	493.00366	746.09564	21.91401	579.01489	29.32694	722.85559	-978.77234	
3507	35.060	-753.31628	-7.83711	-644.95099	819.32410	-3.17832	-638.13971	-670.26538	15.22720	493.12659	746.16760	22.01633	578.99872	29.30872	722.65009	-978.89569	
3508	35.070	-753.26648	-7.98128	-645.00189	819.28754	-3.33778	-638.16803	-670.29810	15.27428	493.08743	746.29675	22.04649	578.95667	29.25516	722.46661	-978.94696	
3509	35.080	-753.25494	-8.05229	-644.98944	819.24976	-3.47069	-638.24078	-670.27930	15.21141	493.09213	746.27454	21.97850	578.90063	29.20780	722.18036	-979.02826	
3510	35.090	-753.25806	-8.13389	-644.98071	819.24481	-3.49703	-638.23682	-670.27124	15.19119	492.94235	746.30524	22.00284	578.87897	29.24835	722.26093	-979.09851	
3511	35.100	-753.21869	-8.08630	-644.96704	819.29596	-3.43678	-638.21710	-670.28540	15.27846	492.94357	746.31537	22.05301	578.89386	29.33244	722.27753	-979.11145	
3512	35.110	-753.11438	-8.07207	-645.03082	819.45575	-3.42871	-638.06848	-670.23413	15.37256	492.96967	746.36841	22.10131	578.91870	29.25820	722.12946	-979.04779	
3513	35.120	-753.25458	-7.96552	-645.03064	819.30096	-3.42485	-638.18945	-670.27789	15.36190	492.99762	746.38367	22.11247	578.90613	29.28862	722.14734	-979.03833	
3514	35.130	-753.22620	-8.05712	-644.98846	819.37170	-3.48632	-638.11725	-670.26288	15.23353	493.08640	746.29523	21.95822	578.89075	29.25716	722.25446	-978.99780	
3515	35.140	-753.26349	-8.04432	-644.96112	819.27802	-3.46998	-638.19916	-670.29974	15.17646	492.95108	746.18854	21.88125	578.86322	29.26069	722.22461	-978.87964	
3516	35.150	-753.27148	-7.95389	-644.93909	819.41107	-3.40609	-638.07129	-670.27185	15.17496	493.05490	746.16278	21.85660	578.85980	29.28996	722.24524	-978.77081	
3517	35.160	-753.14606	-7.94510	-644.97443	819.33630	-3.33266	-638.15979	-670.28149	15.17943	492.98495	746.14496	21.86308	578.91095	29.37072	722.44031	-978.73218	
3518	35.170	-753.26874	-7.80117	-644.96082	819.37982	-3.17853	-638.08569	-670.21930	15.19579	493.10730	746.20587	21.84344	578.88348	29.35288	722.62097	-978.69379	
3519	35.180	-753.24023	-7.77763	-644.91956	819.37103	-3.07223	-638.06915	-670.27551	15.09086	493.00647	746.18921	21.62344	578.85052	29.43424	722.78357	-978.61310	
3520	35.190	-753.24139	-7.65367	-644.89569	819.39563	-2.94572	-638.01343	-670.25110	14.93909	492.96991	747.00763	21.45252	578.58044	29.42482	723.02643	-978.57666	
3521	35.200	-753.25397	-7.51639	-644.80981	819.56781	-2.73519	-637.89923	-670.26678	14.83425	493.02383	747.04169	21.29258	578.57159	29.60187	723.32404	-978.44019	
3522	35.210	-753.25867	-7.31256	-644.74237	819.62036	-2.42612	-637.83093	-670.21228	14.71072	493.06754	746.12317	21.04213	578.83704	29.54813	723.55640	-978.31018	
3523	35.220	-753.33936	-6.99635	-644.64886	819.68323	-2.16546	-637.78064	-670.24939	14.61648	493.11517	746.34998	20.81681	578.83234	29.54371	723.85352	-978.12457	
3524	35.230	-753.26160	-6.84666	-644.62683	819.57648	-1.92212	-637.69543	-670.21643	14.43331	493.07324	746.57690	20.55451	578.85278	29.60805	724.15570	-977.87268	
3525	35.240	-752.75201	-6.94991	-644.77948	819.46594	-1.75619	-637.64331	-670.22339	14.25224	493.15903	747.24280	20.87086	579.29626	29.58679	724.56610	-977.41724	
3526	35.250	-753.17743	-6.44312	-644.44751	819.39221	-1.62108	-637.66870	-670.29327	14.06085	493.20477	747.12549	20.61208	579.42249	29.66967	724.93628	-976.98376	
3527	35.260	-753.14972	-6.10936	-644.41980	819.28430	-1.36231	-637.67432	-670.25916	13.90299	493.19193	747.08447	20.38954	579.46582	29.59454	725.54358	-976.50629	
3528	35.270	-753.34711	-5.58607	-644.43536	819.16901	-0.97273	-637.70038	-670.25470	13.74243	493.20428	747.09900	20.22232	579.52545	29.43953	725.93427	-976.06909	
3529	35.280	-753.53546	-5.10216	-644.33942	819.38068	-0.62592	-637.49280	-670.28577	13.54998	493.37177	747.12250	20.00567	579.57056	29.17142	726.42719	-975.55060	
3530	35.290	-753.45074	-4.85526	-644.22833	819.41510	-0.32920	-637.32019	-670.39221	13.32367	493.49066	747.05609	19.65231	579.72522	29.19579	726.83301	-974.91241	
3531	35.300	-753.50525	-4.56726	-644.11102	819.40601	0.08254	-637.23260	-670.50720	13.00941	493.60794	746.91663	19.37903	579.78308	29.60899	727.33630	-974.16736	
3532	35.310	-753.62903	-4.31367	-643.98389	819.31165	0.39671	-637.22345	-670.53711	12.81611	493.70886	746.71582	19.19744	579.81897	29.55656	727.82214	-973.72675	
3533	35.320	-753.33728	-4.26679	-644.10938	819.22461	0.75998	-637.12585	-670.57715	12.65213	493.80676	746.69525	18.91697	579.84436	29.43282	728.41748	-973.26276	
3534	35.330	-753.81812	-3.61987	-643.88477	819.04578	1.10380	-637.19312	-670.68292	12.44998	493.90039	746.61810	18.52718	579.97791	29.05527	729.07581	-972.81305	
3535	35.340	-753.82031	-3.19512	-643.84192	818.96411	1.50022	-637.03259	-670.76447	12.17232	493.99298	746.52246	18.07317	580.13367	28.95284	729.74225	-972.40161	
3536	35.350	-753.81757	-2.94407	-643.77972	818.87872	1.94817	-636.88892	-670.82813	11.81798	494.04913	746.47974	17.75428	580.18793	28.90460	730.29645	-971.93109	
3537	35.360	-753.83142	-2.45479	-643.67072	818.75525	2.35746	-636.81427	-670.98309	11.34157	494.09622	746.35071	17.39886	580.21045	28.90476	730.89514	-971.71771	
3538	35.370	-753.77435	-1.97615	-643.52972	818.68689	2.80311	-636.68689	-671.04541	10.90054	494.16858	746.30566	17.14868	580.28058	28.67829	731.56158	-971.31409	
3539	35.380	-753.85443	-1.62735	-643.40515	818.53265	3.32612	-636.67627	-671.05988	10.61547	494.35992	746.22388	16.78790	580.39294	28.66101	732.38702	-970.68048	
3540	35.390	-753.96527	-1.19536	-643.32489	818.62256	3.76450	-636.53894	-671.12024	10.43194	494.42810	746.11688	16.36927	580.58142	28.44798	732.99042	-970.11731	
3541	35.400	-754.37079	-0.56328	-643.18848	818.53931	4.27576	-636.33630	-671.23212	10.20516	494.52530	745.93561	15.92428	580.80408	28.56096	733.55878	-969.43335	
3542	35.410	-754.50861	-0.18355	-643.00360	818.18097	4.77423	-636.25305	-671.32532	9.93108	494.64417	745.69336	15.68304	580.91870	28.40481	734.35040	-968.68927	
3543	35.420	-754.70728	0.09380	-642.80200	817.96448	5.09980	-636.18188	-671.49005	9.54859	495.03537	745.47583	15.18080	581.00616	28.03853	735.15979	-967.92010	
3544	35.430	-754.80627	0.63462	-642.72583	817.79755	5.58168	-636.13037	-671.80212	9.16077	495.13821	745.20911	14.72471	581.12408	27.77936	735.75525	-967.11652	
3545	35.440	-755.06952	1.74392	-642.71045	817.52747	6.08316	-636.17804	-672.05774	8.83566	495.05725	745.09564	14.26451	581.25134	27.42135	736.52527	-966.45361	
3546	35.450	-755.01990	2.08319	-642.59607	817.40674	6.82051	-635.98871	-672.16614	8.39429	495.46704	745.45361	14.38010	581.84314	27.43634	737.55798	-965.72424	
3547	35.460	-755.01862	2.38874	-642.42261	817.32330	7.36647	-635.76141	-672.23877	8.04150	495.67346	745.40594	13.82974	581.81805	27.29566	738.18860	-964.80469	
3548	35.470	-755.18988	2.84908	-642.28564	817.03986	7.96977	-635.69849	-672.29297	7.69019	495.73224	744.90991	13.06550	581.60809	27.21181	738.98749	-963.95575	
3549	35.480	-755.51648	3.51341	-642.11163	816.83551	8.37107	-635.56604	-672.50360	7.20591	495.88467	744.61719	12.46377	581.72498	27.28307	739.86536	-963.21661	
3550	35.490	-755.25714	3.87252	-642.26740	816.61719	8.88666	-635.30414	-672.86206	6.89185	495.81412	744.40125	12.05424	581.89020	26.99722	740.81543	-962.44611	
3551	35.500	-756.05511	4.99470	-641.92999	816.18054	9.63495	-635.15247	-673.11639	6.49678	495.90320	744.13464	11.46858	582.05121	26.80897	741.74219	-961.78271	
3552	35.510	-756.39380	5.67363	-641.75256	815.93695	10.28361	-635.12048	-673.23981	6.12991	496.01047	744.09137	11.08083	582.25006	26.43095	742.67316	-961.23096	
3553	35.520	-756.39594	6.08091	-641.71313	816.08020	10.84510	-634.83997	-673.35455	5.64203	496.21255	743.95947	10.63632	582.35858	26.04411	743.68170	-960.40894	
3554	35.530	-756.89618	6.83684	-641.40106	815.89587	11.55881	-634.57239	-673.65851	5.22068	496.34528	743.59149	9.98488	582.52856	25.80091	744.43750	-959.45490	
3555	35.540	-756.96106	7.42602	-641.42340	815.71600	12.08533	-634.43250	-673.90259	4.77656	496.39450	743.36005	9.48425	582.63306	25.65780	745.19098	-958.56982	
3556	35.550	-757.06146	7.85019	-641.34119	815.35876	12.60157	-634.44073	-674.06561	4.41827	496.51337	743.07684	8.98602	582.71869	25.55445	746.01080	-957.65161	
3557	35.560	-757.28131	8.53171	-641.06616	815.17206	13.13308	-634.31146	-674.37012	4.07215	496.63220	742.96246	8.52814	582.91498	25.38107	747.15851	-956.86108	
3558	35.570	-757.56683	9.07711	-640.78882	815.04120	13.82089	-634.13770	-674.68915	3.57890	496.84036	742.71570	8.15036	583.22595	24.93791	747.83112	-956.10876	
3559	35.580	-757.88770	9.93161	-640.79132	814.76508	14.48475	-634.00067	-674.95471	3.19474	497.01553	742.48566	7.61320	583.38727	24.73770	748.95837	-955.25781	
3560	35.590	-758.03137	10.35934	-640.66803	814.55493	15.27227	-633.77325	-675.08331	2.73665	497.25815	742.24799	6.99250	583.54437	24.42686	749.88959	-954.27887	
3561	35.600	-758.36829	10.97032	-640.39069	814.21765	15.76867	-633.68970	-675.42877	2.26193	497.42197	742.10883	6.54799	583.63562	24.22772	750.67749	-953.53668	
